<?xml version="1.0" encoding="utf-8"?>
<svg version="1.1" id="Layer_1" xmlns="http://www.w3.org/2000/svg" xmlns:xlink="http://www.w3.org/1999/xlink" x="0px" y="0px"
	 viewBox="0 0 93.7 93.6" style="enable-background:new 0 0 93.7 93.6;" xml:space="preserve">
<style type="text/css">
	.st0{fill:#7D2C83;}
	.st1{fill:#FFFFFF;}
	.st2{fill:#F26732;stroke:#000000;stroke-width:0.5;stroke-miterlimit:10;}
</style>
<circle class="st0" cx="36.9" cy="36.6" r="33"/>
<g>
	<path class="st1" d="M18.4,54.9c0-12.3,0-24.5,0-36.7c0,0,0-0.1,0.1-0.1c0.3-1.7,1.3-2.9,3-3.4c0.2-0.1,0.4-0.1,0.7-0.2
		c6.2,0,12.4,0,18.6,0c0.3,0,0.7,0.1,1,0.1c0.6,0,1,0.3,1.5,0.7c3.8,3.8,7.7,7.7,11.5,11.5c0.4,0.4,0.6,0.8,0.6,1.3
		c0,0.8,0.1,1.6,0.1,2.4c0,2.3,0,4.6,0,6.9c0,2.9,0,5.7,0,8.6c0,2.5,0,4.9,0,7.4c0,0.6,0,1.1-0.1,1.7c-0.3,2.1-2,3.7-4.2,3.7
		c-9.5,0-19,0-28.6,0c-1.9,0-3.6-1.3-4-3.2C18.5,55.3,18.5,55.1,18.4,54.9z M40.4,17.4c-0.2,0-0.4,0-0.6,0c-5.7,0-11.4,0-17.1,0
		c-0.8,0-1.3,0.6-1.3,1.3c0,0.4,0,0.8,0,1.2c0,2.9,0,5.8,0,8.7c0,2.8,0,5.7,0,8.5c0,2.9,0,5.8,0,8.6c0,2,0,4,0,6c0,0.8,0,1.6,0,2.4
		c0,1.2,0.7,1.6,1.6,1.6c9.4,0,18.7,0,28.1,0c0.1,0,0.1,0,0.2,0c0.7,0,1.2-0.6,1.2-1.3c0-0.3,0-0.6,0-0.9c0-2.8,0-5.7,0-8.5
		c0-5,0-9.9,0-14.9c0-0.2,0-0.4,0-0.7c-0.1,0-0.2,0-0.3,0c-2.5,0-5,0-7.5,0c-0.3,0-0.6,0-1-0.1c-2-0.4-3.3-2.1-3.3-4.1
		c0-2.5,0-5,0-7.5C40.4,17.6,40.4,17.5,40.4,17.4z M43.3,19.5C43.3,19.5,43.3,19.6,43.3,19.5c0,2,0,3.8,0,5.7c0,0.7,0.6,1.3,1.3,1.3
		c1.9,0,3.7,0,5.6,0c0.1,0,0.1,0,0.2,0C48,24.2,45.6,21.8,43.3,19.5z"/>
	<path class="st1" d="M36.9,36.6c-1.1,0-2.2,0-3.4,0c-2.3,0-4.7,0-7,0c-0.6,0-1-0.2-1.3-0.7c-0.6-1,0.1-2.2,1.2-2.2
		c0.2,0,0.3,0,0.5,0c4.2,0,8.3,0,12.5,0c2.7,0,5.3,0,8,0c0.7,0,1.2,0.3,1.4,0.9c0.4,0.9-0.3,2-1.3,2c-1.9,0-3.8,0-5.7,0
		c-0.8,0-1.6,0-2.4,0C38.4,36.7,37.7,36.7,36.9,36.6L36.9,36.6z"/>
	<path class="st1" d="M36.9,48.4c3.4,0,6.9,0,10.4,0c0.7,0,1.3,0.4,1.5,1c0.3,0.9-0.4,1.8-1.3,1.9c-0.1,0-0.1,0-0.1,0
		c-6.9,0-13.8,0-20.7,0c-0.2,0-0.4,0-0.6-0.1c-0.7-0.2-1.1-0.9-1-1.6c0.1-0.7,0.7-1.2,1.4-1.2C29.9,48.4,33.4,48.4,36.9,48.4
		L36.9,48.4z"/>
	<path class="st1" d="M36.9,44c-3.5,0-7,0-10.4,0c-0.6,0-1-0.3-1.3-0.7c-0.3-0.5-0.3-1,0-1.5c0.3-0.5,0.7-0.7,1.3-0.7
		c1.9,0,3.8,0,5.6,0c3,0,5.9,0,8.9,0c2.1,0,4.2,0,6.3,0c0.7,0,1.3,0.5,1.5,1.2c0.2,0.9-0.5,1.7-1.4,1.7c-1.1,0-2.3,0-3.4,0
		C41.6,44,39.3,44,36.9,44z"/>
	<path class="st1" d="M30.6,26.4c1.4,0,2.7,0,4.1,0c0.7,0,1.2,0.4,1.4,1c0.3,1-0.3,1.9-1.3,1.9c-1.7,0-3.3,0-5,0c-1.1,0-2.2,0-3.3,0
		c-0.7,0-1.2-0.4-1.4-1c-0.4-1,0.4-2,1.4-2C27.8,26.4,29.2,26.4,30.6,26.4L30.6,26.4z"/>
</g>
<path class="st2" d="M87.1,92.7c-1.5,0-2.8-0.6-4-1.8C77.1,85,71.2,79,65.2,73.1c-1.6-1.6-3.2-3.2-4.8-4.8l-2-2
	c-6.2,4.6-13.6,7-21.2,7c-7.4,0-14.5-2.2-20.6-6.3C10.3,62.7,5.6,56.5,3,49.2c-1.1-2.9-1.7-5.9-1.9-8.9C1.1,40.2,1,40,1,39.9
	c0-0.1-0.1-0.2-0.1-0.3l0-0.1v-4.8l0-0.1c0.1-0.5,0.1-1,0.2-1.5c0.2-1.1,0.3-2.2,0.5-3.2c1.4-7.2,5.1-13.8,10.5-19
	s12.2-8.5,19.5-9.6c1.9-0.3,3.7-0.4,5.6-0.4c7.5,0,14.7,2.2,20.8,6.5c6.2,4.3,10.7,10.4,13.3,17.6c4.1,11.8,2.5,23.1-4.8,33.5
	c0.5,0.5,0.9,1,1.4,1.4c1.1,1.2,2.3,2.4,3.5,3.5C77.8,69.9,84.4,76.5,91,83c1.6,1.6,2.1,3.5,1.5,5.7c-0.6,2.1-2.1,3.4-4.3,3.9
	C87.8,92.7,87.4,92.7,87.1,92.7z M37.1,7.3C20.8,7.3,7.4,20.6,7.3,37c0,8,3.1,15.5,8.7,21.1c5.6,5.6,13.1,8.8,21,8.8h0.1
	c8,0,15.4-3.1,21.1-8.7s8.7-13.1,8.8-21.1c0-7.9-3.1-15.4-8.7-21C52.6,10.4,45.1,7.3,37.1,7.3z"/>
<path class="st1" d="M37.2,1.8c14.8,0,28.1,9.1,33.2,23.5c4.2,11.9,2.3,23-5.1,33.2c-0.3,0.4-0.5,0.7-0.7,1.2c0.3-0.3,0.6-0.5,1-0.8
	c1.7,1.7,3.4,3.5,5.1,5.2c6.6,6.6,13.1,13.1,19.7,19.7c1.3,1.3,1.8,2.9,1.3,4.8c-0.5,1.8-1.8,2.9-3.6,3.3c-0.3,0.1-0.6,0.1-1,0.1
	c-1.3,0-2.4-0.6-3.4-1.5c-5.9-5.9-11.9-11.9-17.8-17.8c-2.3-2.3-4.6-4.6-7-6.9c0.3-0.3,0.5-0.6,0.7-0.9c0,0-0.1-0.1-0.1-0.1
	c-0.3,0.2-0.6,0.4-0.8,0.6c-6.5,5-14,7.3-21.4,7.3C23,72.4,9.1,63.8,3.8,48.9c-1-2.8-1.6-5.7-1.9-8.7c0-0.3-0.1-0.6-0.2-0.9
	c0-1.6,0-3.1,0-4.7c0.3-1.6,0.4-3.1,0.7-4.7C5.4,15.6,17.2,4.4,31.8,2.2C33.6,1.9,35.4,1.8,37.2,1.8 M37.1,67.8
	c17,0,30.7-13.7,30.7-30.7c0-16.9-13.7-30.7-30.7-30.7l0,0C20.2,6.4,6.5,20.1,6.4,37C6.4,54,20.1,67.8,37.1,67.8
	C37.1,67.8,37.1,67.8,37.1,67.8 M39,0h-1.8c-1.9,0-3.8,0.1-5.7,0.4C27.7,1,24.1,2.1,20.7,3.8c-3.3,1.7-6.4,3.8-9.1,6.4
	c-2.7,2.6-5,5.6-6.8,8.8C2.8,22.4,1.5,26,0.8,29.7c-0.2,1.1-0.4,2.2-0.5,3.3c-0.1,0.5-0.1,1-0.2,1.5l0,0.1v0.1v4.7v0.2l0,0.2
	c0,0.1,0.1,0.2,0.1,0.3c0,0.1,0.1,0.3,0.1,0.3c0.2,3.1,0.9,6.1,2,9.1c2.7,7.5,7.5,13.8,14,18.2c3.1,2.1,6.5,3.7,10.1,4.8
	c3.6,1.1,7.3,1.7,11,1.7c7.6,0,14.9-2.3,21.2-6.7c0.5,0.5,1,1,1.4,1.4c1.6,1.6,3.2,3.2,4.8,4.7c7.1,7.1,12.6,12.6,17.8,17.8
	c1.4,1.4,2.9,2,4.7,2c0.4,0,0.9,0,1.3-0.1c2.5-0.5,4.3-2.1,5-4.5c0.7-2.4,0.1-4.7-1.7-6.5C84.3,75.1,77.8,68.6,72,62.7
	c-1.2-1.2-2.4-2.4-3.5-3.5c-0.3-0.3-0.6-0.6-0.9-0.9c3.4-5,5.5-10.2,6.4-15.6c0.9-5.9,0.3-12-1.9-18.1c-2.6-7.4-7.3-13.6-13.6-18
	C52.7,2.7,46,0.4,39,0L39,0L39,0z M37.1,66L37.1,66c-7.8,0-15-3-20.5-8.5C11.2,52,8.2,44.7,8.2,37c0-7.7,3-14.9,8.5-20.3
	s12.7-8.4,20.4-8.4c7.7,0,15,3,20.5,8.5C63,22.2,66,29.4,66,37.1c0,7.7-3,15-8.5,20.4C52.1,63,44.8,66,37.1,66L37.1,66z"/>
</svg>
